<svg viewBox="0 0 512 512" xmlns="http://www.w3.org/2000/svg" xml:space="preserve" fill-rule="evenodd" clip-rule="evenodd" stroke-linejoin="round" stroke-miterlimit="2"><circle cx="276.543" cy="255.289" r="199.756" fill="#fff" transform="translate(-20.88 .4) scale(1.00122)"/><path d="M135.345 198.812c-7.738 1.459-13.178 7.067-16.317 16.823-1.571 4.823-2.356 9.589-2.356 14.3 0 .56.029 1.037.085 1.43.057.392.141 1.26.252 2.606h18.336v36.675H99.513v-33.813c0-16.599 3.31-29.384 9.926-38.357 6.617-8.971 15.253-14.13 25.906-15.475v15.811Zm56.692 0c-6.167 1.011-10.85 4.487-14.047 10.43-3.195 5.945-4.793 12.786-4.793 20.524 0 .674.027 1.346.084 2.02.056.671.196 1.4.42 2.185h18.336v36.675h-36v-33.813c0-13.347 2.805-25.264 8.411-35.749 5.608-10.486 14.805-16.514 27.589-18.083v15.811ZM368.486 272.186c8.41-1.57 13.963-7.738 16.654-18.504 1.57-6.393 2.13-11.944 1.683-16.654h-18.337v-36.673h36v33.813c0 13.347-2.747 25.261-8.243 35.748-5.495 10.485-14.747 16.514-27.757 18.084v-15.814Zm-56.523 0c8.41-1.57 14.019-7.738 16.823-18.504 1.57-6.393 2.075-11.944 1.514-16.654h-18.337v-36.673h35.83v33.813c0 13.347-2.746 25.206-8.24 35.58-5.496 10.374-14.693 16.458-27.59 18.252v-15.814Z" fill="#dd645e" fill-rule="nonzero"/></svg>